<?xml version="1.0" standalone="no"?><!DOCTYPE svg PUBLIC "-//W3C//DTD SVG 1.1//EN" "http://www.w3.org/Graphics/SVG/1.1/DTD/svg11.dtd"><svg class="icon" width="32px" height="32.00px" viewBox="0 0 1024 1024" version="1.1" xmlns="http://www.w3.org/2000/svg"><path d="M424.448 665.6c0.512 5.632 1.536 11.264 3.072 16.384l-10.24 8.704 11.776-5.12c-1.536-0.512-2.56-0.512-4.096 0 5.632-2.048 11.264-5.12 15.872-9.216l8.192-6.656 5.632-5.12 3.584-4.096 32.256-39.936c18.432-27.136 30.72-57.856 35.84-90.112-0.512-3.584-2.048-7.168-4.096-10.24 0 0-3.072 5.632-5.12 7.68-3.072 5.12-8.704 9.216-14.848 10.24h-6.144c-40.96 30.208-67.072 76.8-71.68 127.488z" fill="#27AE60" /><path d="M793.6 51.2H230.4c-56.32 0-102.4 46.08-102.4 102.4v716.8c0 56.32 46.08 102.4 102.4 102.4h563.2c56.32 0 102.4-46.08 102.4-102.4V153.6c0-56.32-46.08-102.4-102.4-102.4zM256 241.664h512v76.8H256v-76.8z m236.544 204.8h3.584c5.632-2.048 11.264-3.584 16.896-4.608 13.312-0.512 26.112 4.096 35.84 12.8 7.68 5.632 12.8 13.824 14.848 23.04 0.512 2.56 0.512 5.632 0 8.192 8.704 11.776 13.824 25.6 13.824 40.448 8.704 88.064-51.2 204.8-145.408 223.232h-11.776c-37.376 0-60.928-38.4-65.024-74.24-1.536-51.712 13.824-102.4 43.52-144.384 18.944-27.648 42.496-51.2 70.144-70.144l4.096-3.072 14.848-8.704 6.656-3.072-2.048 0.512zM204.8 716.8v-6.144c1.536-30.208 8.192-59.392 18.944-87.552 12.288-29.184 26.112-56.832 37.376-79.36-3.072 2.048-6.656 3.584-10.24 4.608h-6.144l-6.656-5.12c-4.096-4.096-6.656-10.24-6.144-16.384-0.512-13.312 6.656-26.112 17.92-33.28L256 491.52c37.888-30.208 51.2-40.96 63.488-41.984 6.144-0.512 11.776 1.024 16.384 5.12 9.216 8.704 15.872 19.968 17.92 32.256v5.12c0 10.24 0 16.384-32.768 90.112l-15.36 36.352c-15.872 32.256-26.624 67.072-32.256 102.4v23.552c-1.536 7.68-8.192 13.312-15.872 13.824-4.608-0.512-8.704-2.048-12.8-4.096l-8.704-3.584c-16.384-3.584-28.672-17.408-31.232-33.792z m94.208 163.84l-6.656 3.072c-10.752 6.144-22.528 9.728-34.816 11.264-2.56 0.512-5.12 0.512-7.68 0-6.144-2.56-10.752-8.192-11.776-14.848-0.512-8.192 3.584-16.384 10.752-20.48 7.168-4.096 174.592-91.648 482.816-111.104v3.072l43.52-3.072v25.6c-162.304 16.896-321.536 53.248-475.136 108.032l-1.024-1.536z m358.4-177.152h-11.776c-37.376 0-60.928-38.4-65.024-74.24-1.536-51.712 13.824-102.4 43.52-144.384 27.648-41.984 68.096-73.728 115.712-90.112 23.04-1.024 44.032 13.824 51.2 35.84 1.024 3.072 1.024 5.632 0 8.704 8.192 11.776 13.312 25.6 13.824 39.936 8.192 90.624-53.248 207.36-145.92 225.792l-1.536-1.536z" fill="#27AE60" /><path d="M751.616 486.4c-0.512-3.072-1.536-6.144-3.072-9.216l-6.144 7.68c-3.072 5.632-9.216 9.728-15.872 10.24h-6.656c-40.448 31.232-66.048 77.824-69.632 129.024v4.096c0.512 5.632 1.536 10.752 3.584 15.872 11.264-6.144 20.992-13.824 29.184-23.552l32.768-40.448c18.432-26.624 30.72-57.344 36.352-89.6l-0.512-4.096z" fill="#27AE60" /></svg>