<?xml version="1.0" standalone="no"?><!DOCTYPE svg PUBLIC "-//W3C//DTD SVG 1.1//EN" "http://www.w3.org/Graphics/SVG/1.1/DTD/svg11.dtd"><svg class="icon" width="32px" height="32.00px" viewBox="0 0 1024 1024" version="1.1" xmlns="http://www.w3.org/2000/svg"><path d="M848 1024H243.2c-40 0-72-32-72-72s32-72 72-72H396c159.2-93.6 152.8-204 124.8-273.6 59.2 0 106.4-44.8 114.4-101.6 93.6 59.2 68 301.6 59.2 375.2H848c40 0 72 32 72 72s-32 72-72 72zM565.6 488c0 26.4-20.8 47.2-48.8 47.2-28 0-48.8-20.8-48.8-48.8 0-28 20.8-47.2 48.8-47.2 27.2 0 48.8 23.2 48.8 48.8z m0-115.2c-6.4-2.4-15.2-6.4-21.6-6.4-8.8-2.4-16.8-2.4-23.2-2.4-65.6 0-118.4 52.8-118.4 118.4 0 8.8 0 16.8 2.4 25.6s4 15.2 6.4 21.6L260.8 682.4c-19.2 19.2-52.8 19.2-72 0L80 574.4c-19.2-19.2-19.2-52.8 0-72l481.6-488c19.2-19.2 52.8-19.2 72 0l108 108c19.2 19.2 19.2 52.8 0 72l-176 178.4zM228 504.8c-8 0-16 6.4-16 16 0 8 6.4 16 16 16 8 0 16-6.4 16-16 0.8-9.6-6.4-16-16-16z" fill="#9B51E0" /></svg>